<svg width="17" height="17" viewBox="0 0 17 17" fill="none" xmlns="http://www.w3.org/2000/svg">
<path d="M6.30729 6.4792C6.30729 6.8965 5.97149 7.23477 5.55729 7.23477C5.14309 7.23477 4.80729 6.8965 4.80729 6.4792C4.80729 6.06193 5.14309 5.72363 5.55729 5.72363C5.97149 5.72363 6.30729 6.06193 6.30729 6.4792Z" fill="#151515"/>
<path d="M9.30729 6.4792C9.30729 6.8965 8.97149 7.23477 8.55729 7.23477C8.14309 7.23477 7.80729 6.8965 7.80729 6.4792C7.80729 6.06193 8.14309 5.72363 8.55729 5.72363C8.97149 5.72363 9.30729 6.06193 9.30729 6.4792Z" fill="#151515"/>
<path d="M9.59896 10.1125C9.59896 10.4255 9.85079 10.6792 10.1615 10.6792C10.4721 10.6792 10.724 10.4255 10.724 10.1125C10.724 9.79952 10.4721 9.54582 10.1615 9.54582C9.85079 9.54582 9.59896 9.79952 9.59896 10.1125Z" fill="#151515"/>
<path d="M11.849 10.1125C11.849 10.4255 12.1008 10.6792 12.4115 10.6792C12.7221 10.6792 12.974 10.4255 12.974 10.1125C12.974 9.79952 12.7221 9.54582 12.4115 9.54582C12.1008 9.54582 11.849 9.79952 11.849 10.1125Z" fill="#151515"/>
<path fill-rule="evenodd" clip-rule="evenodd" d="M1.51562 7.74585C1.51562 4.43213 4.2019 1.74585 7.51562 1.74585C10.6945 1.74585 13.2959 4.21794 13.5024 7.34475C14.7091 8.07463 15.5156 9.39938 15.5156 10.9125C15.5156 11.4697 15.4059 12.0027 15.2065 12.49L15.5067 14.3036C15.5474 14.5498 15.4473 14.7981 15.2472 14.9472C15.0471 15.0962 14.7805 15.121 14.5563 15.0115L13.4873 14.4892C12.862 14.8638 12.13 15.0792 11.349 15.0792C10.1242 15.0792 9.02281 14.5507 8.26045 13.7094C7.39785 13.8118 6.50638 13.719 5.59291 13.4461L3.44887 14.367C3.22489 14.4632 2.96627 14.4295 2.77444 14.2791C2.58261 14.1287 2.48816 13.8856 2.52812 13.6451L2.87623 11.5508C2.02641 10.5157 1.51562 9.18976 1.51562 7.74585ZM7.46155 12.4154C7.2812 11.9491 7.18229 11.4424 7.18229 10.9125C7.18229 8.61133 9.04777 6.74585 11.349 6.74585C11.6014 6.74585 11.8486 6.7683 12.0887 6.81132C11.6559 4.68192 9.7729 3.07918 7.51562 3.07918C4.93828 3.07918 2.84896 5.16851 2.84896 7.74585C2.84896 8.96251 3.31367 10.0691 4.07643 10.9002C4.21514 11.0513 4.27655 11.2579 4.24291 11.4603L4.04341 12.6605L5.29419 12.1233C5.44423 12.0588 5.61269 12.0517 5.76764 12.1032C6.36432 12.3016 6.9279 12.4033 7.46155 12.4154ZM8.51562 10.9125C8.51562 9.34771 9.78415 8.07918 11.349 8.07918C12.9138 8.07918 14.1823 9.34771 14.1823 10.9125C14.1823 11.3425 14.087 11.7484 13.9169 12.1117C13.8851 12.177 13.8637 12.2478 13.8546 12.3217C13.8463 12.3884 13.8484 12.4554 13.86 12.5203L13.9801 13.246L13.7414 13.1294C13.6269 13.0706 13.4976 13.0462 13.3702 13.0588C13.2802 13.0677 13.1911 13.095 13.1088 13.1415C13.0806 13.1574 13.0535 13.1753 13.0277 13.1952C12.5579 13.5415 11.9783 13.7458 11.349 13.7458C9.78415 13.7458 8.51562 12.4773 8.51562 10.9125Z" fill="#151515"/>
</svg>
