<svg width="17" height="17" viewBox="0 0 17 17" fill="none" xmlns="http://www.w3.org/2000/svg">
<path d="M12.9846 1.75991L13.0598 1.78024L14.3938 2.22595L14.5972 2.30105L14.6416 2.31925C14.9141 2.4331 15.1104 2.56725 15.264 2.78027C15.4324 3.01399 15.4891 3.17974 15.5074 3.54693L15.514 3.76881L15.5156 4.04036V11.746C15.5156 11.7821 15.5128 11.8175 15.5072 11.852C15.5127 11.9265 15.5156 12.0026 15.5156 12.0794C15.5156 13.7362 14.1725 15.0794 12.5156 15.0794C10.8588 15.0794 9.51562 13.7362 9.51562 12.0794C9.51562 12.0026 9.51851 11.9265 9.52418 11.8511C9.52251 11.8427 9.52121 11.8333 9.52011 11.8238L9.51562 11.746C9.51562 11.1938 9.0679 10.746 8.51562 10.746C7.99584 10.746 7.56866 11.1426 7.5202 11.6497L7.51562 11.746C7.51562 11.7821 7.51276 11.8175 7.50725 11.852C7.51274 11.9265 7.51562 12.0026 7.51562 12.0794C7.51562 13.7362 6.17248 15.0794 4.51562 15.0794C2.85877 15.0794 1.51562 13.7362 1.51562 12.0794C1.51562 12.0026 1.51851 11.9265 1.52418 11.8511C1.52251 11.8427 1.52121 11.8333 1.52011 11.8238L1.51562 11.746L1.51597 3.89777L1.51975 3.65227C1.53272 3.20931 1.58353 3.03523 1.7673 2.78026C1.92082 2.56726 2.11713 2.4331 2.38968 2.31925L2.52589 2.26568L2.88317 2.14301L3.97147 1.78024C4.32077 1.66381 4.69832 1.85258 4.81475 2.20188C4.92286 2.52623 4.76782 2.87493 4.46545 3.01631L4.39311 3.04515L3.04319 3.49664L2.85229 3.57003L2.84953 3.87332L2.84861 9.58478C3.32538 9.26554 3.89876 9.07936 4.51562 9.07936C5.43826 9.07936 6.26362 9.49586 6.81393 10.1511C7.23842 9.69657 7.84387 9.4127 8.51562 9.4127C9.18738 9.4127 9.79283 9.69657 10.2186 10.1509C10.7676 9.49586 11.593 9.07936 12.5156 9.07936C13.1316 9.07936 13.7042 9.26501 14.1806 9.58342L14.1783 3.57003L13.9881 3.49665L13.7264 3.40792L12.6381 3.04515C12.2888 2.92872 12.1001 2.55117 12.2165 2.20188C12.3246 1.87753 12.6579 1.6916 12.9846 1.75991ZM4.51562 10.4127C3.59515 10.4127 2.84896 11.1589 2.84896 12.0794C2.84896 12.9998 3.59515 13.746 4.51562 13.746C5.4361 13.746 6.18229 12.9998 6.18229 12.0794C6.18229 11.1589 5.4361 10.4127 4.51562 10.4127ZM12.5156 10.4127C11.5952 10.4127 10.849 11.1589 10.849 12.0794C10.849 12.9998 11.5952 13.746 12.5156 13.746C13.4361 13.746 14.1823 12.9998 14.1823 12.0794C14.1823 11.1589 13.4361 10.4127 12.5156 10.4127Z" fill="#656565"/>
</svg>
