<svg width="54" height="440" viewBox="0 0 54 415" fill="none" xmlns="http://www.w3.org/2000/svg">
<path d="M2 471.868L42.4249 472.837ZM25.52 375.466L24.598 375.853L25.7284 378.544L26.4858 375.725L25.52 375.466ZM29.86 368.326L30.4826 369.108L30.4913 369.101L29.86 368.326ZM51 407.666V408.666H52V407.666H51ZM2 407.666H0.999996V408.666H2V407.666ZM5.29 372.876L4.47543 372.296L5.29 372.876ZM21.25 370.146L20.6905 370.975L20.6977 370.979L20.705 370.984L21.25 370.146ZM22.93 398.706V399.706H23.93V398.706H22.93ZM21.18 379.806L20.3829 380.41H20.3829L21.18 379.806ZM10.82 379.806L11.6055 380.425L11.6114 380.417L11.6171 380.41L10.82 379.806ZM9 398.706H8V399.706H9V398.706ZM29.58 398.706H28.58V399.706H29.58V398.706ZM44 398.706V399.706H45V398.706H44ZM26.4858 375.725C27.2835 372.756 28.6325 370.58 30.4825 369.108L29.2375 367.543C26.9808 369.338 25.4365 371.922 24.5542 375.206L26.4858 375.725ZM30.4913 369.101C32.2899 367.637 34.5752 366.876 37.42 366.876V364.876C34.1982 364.876 31.4435 365.747 29.2287 367.55L30.4913 369.101ZM37.42 366.876C41.4286 366.876 44.4562 368.337 46.63 371.236L48.23 370.036C45.6438 366.587 41.998 364.876 37.42 364.876V366.876ZM46.63 371.236C48.8284 374.167 50 378.516 50 384.426H52C52 378.295 50.7916 373.451 48.23 370.036L46.63 371.236ZM50 384.426V407.666H52V384.426H50ZM51 406.666H2V408.666H51V406.666ZM3 407.666L3 385.756H0.999996L0.999996 407.666H3ZM3 385.756C3 380.366 4.07552 376.305 6.10456 373.456L4.47543 372.296C2.11781 375.606 0.999996 380.132 0.999996 385.756H3ZM6.10456 373.456C8.09711 370.658 10.8867 369.256 14.6 369.256V367.256C10.2866 367.256 6.86955 368.934 4.47543 372.296L6.10456 373.456ZM14.6 369.256C16.996 369.256 19.0114 369.841 20.6905 370.975L21.8095 369.317C19.7552 367.93 17.3373 367.256 14.6 367.256V369.256ZM20.705 370.984C22.3814 372.074 23.6847 373.678 24.598 375.853L26.442 375.078C25.3953 372.586 23.852 370.644 21.795 369.307L20.705 370.984ZM23.93 398.706V386.526H21.93V398.706H23.93ZM23.93 386.526C23.93 383.475 23.3282 380.985 21.9771 379.202L20.3829 380.41C21.3651 381.706 21.93 383.696 21.93 386.526H23.93ZM21.9771 379.202C20.5854 377.365 18.535 376.496 16 376.496V378.496C18.0384 378.496 19.4412 379.167 20.3829 380.41L21.9771 379.202ZM16 376.496C13.465 376.496 11.4146 377.365 10.0229 379.202L11.6171 380.41C12.5588 379.167 13.9616 378.496 16 378.496V376.496ZM10.0345 379.187C8.62789 380.972 8 383.468 8 386.526H10C10 383.703 10.5854 381.719 11.6055 380.425L10.0345 379.187ZM8 386.526L8 398.706H10V386.526H8ZM9 399.706H22.93V397.706H9V399.706ZM45 384.706C45 381.389 44.3801 378.719 42.9786 376.859C41.537 374.946 39.3889 374.046 36.72 374.046V376.046C38.9045 376.046 40.3964 376.756 41.3814 378.063C42.4066 379.423 43 381.583 43 384.706H45ZM36.72 374.046C34.0905 374.046 31.9763 374.951 30.5608 376.866C29.1872 378.725 28.58 381.392 28.58 384.706H30.58C30.58 381.58 31.1628 379.417 32.1692 378.055C33.1337 376.75 34.5895 376.046 36.72 376.046V374.046ZM28.58 384.706V398.706H30.58V384.706H28.58ZM29.58 399.706H44V397.706H29.58V399.706ZM45 398.706V384.706H43V398.706H45ZM22.58 319.389L23.3417 320.037L23.3468 320.031L23.3519 320.025L22.58 319.389ZM46.73 319.809L47.5017 319.173L47.4965 319.167L46.73 319.809ZM51 355.439V356.439H52V355.439H51ZM2 355.439H0.999996V356.439H2V355.439ZM2 346.479V345.479H0.999996V346.479H2ZM18.59 346.479V347.479H19.59V346.479H18.59ZM41.55 326.599L40.7894 327.248L41.55 326.599ZM25.52 346.479H24.52V347.479H25.52V346.479ZM44 346.479V347.479H45V346.479H44ZM2 307.559H0.999996V308.559H2V307.559ZM2 298.599V297.599H0.999996V298.599H2ZM51 298.599H52V297.599H51V298.599ZM51 307.559V308.559H52V307.559H51ZM19.59 332.899C19.59 327.156 20.8902 322.919 23.3417 320.037L21.8183 318.741C18.9498 322.113 17.59 326.883 17.59 332.899H19.59ZM23.3519 320.025C25.7274 317.14 29.3043 315.629 34.27 315.629V313.629C28.8757 313.629 24.6593 315.291 21.8081 318.753L23.3519 320.025ZM34.27 315.629C39.4532 315.629 43.2987 317.271 45.9635 320.451L47.4965 319.167C44.3747 315.441 39.9135 313.629 34.27 313.629V315.629ZM45.9584 320.445C48.6083 323.66 50 328.257 50 334.369H52C52 327.975 50.545 322.865 47.5016 319.173L45.9584 320.445ZM50 334.369V355.439H52V334.369H50ZM51 354.439H2V356.439H51V354.439ZM3 355.439V346.479H0.999996V355.439H3ZM2 347.479H18.59V345.479H2V347.479ZM19.59 346.479V332.899H17.59V346.479H19.59ZM45 334.789C45 331.101 44.1513 328.106 42.3106 325.95L40.7894 327.248C42.2154 328.919 43 331.384 43 334.789H45ZM42.3106 325.95C40.4423 323.761 37.7521 322.729 34.41 322.729V324.729C37.3212 324.729 39.3911 325.61 40.7894 327.248L42.3106 325.95ZM34.41 322.729C31.2276 322.729 28.6815 323.73 26.9631 325.868C25.2782 327.964 24.52 330.995 24.52 334.789H26.52C26.52 331.21 27.2435 328.711 28.5219 327.121C29.7668 325.572 31.6657 324.729 34.41 324.729V322.729ZM24.52 334.789V346.479H26.52V334.789H24.52ZM25.52 347.479H44V345.479H25.52V347.479ZM45 346.479V334.789H43V346.479H45ZM3 307.559V298.599H0.999996V307.559H3ZM2 299.599H51V297.599H2V299.599ZM50 298.599V307.559H52V298.599H50ZM51 306.559H2V308.559H51V306.559ZM48.48 275.726L49.3552 276.209L49.3618 276.197L48.48 275.726ZM39.45 285.106L39.9552 285.969L39.963 285.964L39.45 285.106ZM13.55 285.036L13.037 285.894L13.55 285.036ZM4.59 275.656L5.46948 275.18L5.4675 275.176L4.59 275.656ZM3.4 251.226L4.32115 251.615L3.4 251.226ZM9.49 242.826L10.2184 242.14L9.56329 241.444L8.83811 242.067L9.49 242.826ZM15.02 248.706L15.6998 249.439L16.4386 248.754L15.7485 248.02L15.02 248.706ZM11.52 270.826L12.3986 270.348L12.392 270.336L11.52 270.826ZM17.61 277.056L18.1061 276.187L17.61 277.056ZM35.39 277.056L35.8861 277.924L35.39 277.056ZM41.55 270.826L42.4221 271.315L42.4285 271.303L41.55 270.826ZM37.91 248.706L37.1859 248.016L36.4825 248.754L37.2347 249.443L37.91 248.706ZM43.51 242.826L44.1619 242.067L43.4412 241.448L42.7859 242.136L43.51 242.826ZM49.6 251.296L48.6769 251.68L48.6789 251.685L49.6 251.296ZM50.7 262.286C50.7 267.082 49.6607 271.398 47.5982 275.254L49.3618 276.197C51.5927 272.026 52.7 267.382 52.7 262.286H50.7ZM47.6049 275.242C45.4955 279.056 42.6094 282.053 38.937 284.247L39.963 285.964C43.944 283.585 47.0778 280.328 49.3551 276.209L47.6049 275.242ZM38.9448 284.243C35.2842 286.385 31.1445 287.466 26.5 287.466V289.466C31.4688 289.466 35.9625 288.306 39.9552 285.969L38.9448 284.243ZM26.5 287.466C21.8593 287.466 17.7225 286.364 14.063 284.177L13.037 285.894C17.0309 288.281 21.5273 289.466 26.5 289.466V287.466ZM14.063 284.177C10.3925 281.984 7.53163 278.99 5.46947 275.18L3.71052 276.131C5.9417 280.254 9.05414 283.514 13.037 285.894L14.063 284.177ZM5.4675 275.176C3.36102 271.322 2.3 267.009 2.3 262.216H0.299997C0.299997 267.316 1.43231 271.963 3.71249 276.135L5.4675 275.176ZM2.3 262.216C2.3 258.32 2.97889 254.791 4.32115 251.615L2.47885 250.836C1.0211 254.286 0.299997 258.084 0.299997 262.216H2.3ZM4.32115 251.615C5.66266 248.44 7.60196 245.767 10.1419 243.584L8.83811 242.067C6.05804 244.457 3.93734 247.385 2.47885 250.836L4.32115 251.615ZM8.76154 243.511L14.2915 249.391L15.7485 248.02L10.2184 242.14L8.76154 243.511ZM14.3402 247.972C10.3111 251.706 8.28 256.335 8.28 261.796H10.28C10.28 256.896 12.0756 252.798 15.6998 249.439L14.3402 247.972ZM8.28 261.796C8.28 265.309 9.06244 268.491 10.648 271.315L12.392 270.336C10.9909 267.84 10.28 265.002 10.28 261.796H8.28ZM10.6415 271.303C12.1763 274.125 14.3383 276.338 17.1139 277.924L18.1061 276.187C15.6551 274.787 13.757 272.846 12.3985 270.348L10.6415 271.303ZM17.1139 277.924C19.8932 279.512 23.0306 280.296 26.5 280.296V278.296C23.3427 278.296 20.5535 277.586 18.1061 276.187L17.1139 277.924ZM26.5 280.296C29.9694 280.296 33.1068 279.512 35.8861 277.924L34.8939 276.187C32.4465 277.586 29.6573 278.296 26.5 278.296V280.296ZM35.8861 277.924C38.659 276.339 40.8412 274.131 42.422 271.315L40.678 270.336C39.2721 272.84 37.3477 274.785 34.8939 276.187L35.8861 277.924ZM42.4285 271.303C43.9634 268.481 44.72 265.304 44.72 261.796H42.72C42.72 265.007 42.03 267.85 40.6715 270.348L42.4285 271.303ZM44.72 261.796C44.72 256.331 42.6623 251.701 38.5853 247.968L37.2347 249.443C40.9044 252.803 42.72 256.9 42.72 261.796H44.72ZM38.6341 249.395L44.2341 243.515L42.7859 242.136L37.1859 248.016L38.6341 249.395ZM42.8581 243.584C45.3953 245.765 47.3346 248.459 48.6769 251.68L50.5231 250.911C49.0654 247.413 46.9447 244.459 44.1619 242.067L42.8581 243.584ZM48.6789 251.685C50.0211 254.861 50.7 258.39 50.7 262.286H52.7C52.7 258.154 51.9789 254.356 50.5211 250.906L48.6789 251.685ZM9.7 199.363H10.7V198.363H9.7V199.363ZM9.7 215.603H8.7V216.603H9.7V215.603ZM51 215.603H52V214.603H51V215.603ZM51 224.633V225.633H52V224.633H51ZM9.7 224.633V223.633H8.7V224.633H9.7ZM9.7 240.803V241.803H10.7V240.803H9.7ZM2 240.803H0.999996V241.803H2V240.803ZM2 199.363V198.363H0.999996V199.363H2ZM8.7 199.363V215.603H10.7V199.363H8.7ZM9.7 216.603H51V214.603H9.7V216.603ZM50 215.603V224.633H52V215.603H50ZM51 223.633H9.7V225.633H51V223.633ZM8.7 224.633V240.803H10.7V224.633H8.7ZM9.7 239.803H2V241.803H9.7V239.803ZM3 240.803L3 199.363H0.999996L0.999996 240.803H3ZM2 200.363H9.7V198.363H2V200.363ZM39.66 161.496L39.2633 160.578L38.66 160.839V161.496H39.66ZM39.66 185.996H38.66V186.657L39.2681 186.916L39.66 185.996ZM51 190.826H52V190.165L51.3919 189.906L51 190.826ZM51 200.206L50.5896 201.118L52 201.753V200.206H51ZM2 178.156H0.999996V178.803L1.58963 179.068L2 178.156ZM2 169.196L1.58855 168.284L0.999996 168.55V169.196H2ZM51 147.076H52V145.527L50.5886 146.164L51 147.076ZM51 156.596L51.3967 157.514L52 157.253V156.596H51ZM32.52 164.506H33.52V162.985L32.1239 163.588L32.52 164.506ZM11.1 173.746L10.7039 172.828L8.56723 173.749L10.7064 174.665L11.1 173.746ZM32.52 182.916L32.1264 183.835L33.52 184.432L33.52 182.916H32.52ZM38.66 161.496L38.66 185.996H40.66V161.496H38.66ZM39.2681 186.916L50.6081 191.746L51.3919 189.906L40.0519 185.076L39.2681 186.916ZM50 190.826V200.206H52V190.826H50ZM51.4104 199.294L2.41036 177.244L1.58963 179.068L50.5896 201.118L51.4104 199.294ZM3 178.156V169.196H0.999996V178.156H3ZM2.41144 170.107L51.4114 147.987L50.5886 146.164L1.58855 168.284L2.41144 170.107ZM50 147.076V156.596H52V147.076H50ZM50.6033 155.678L39.2633 160.578L40.0567 162.414L51.3967 157.514L50.6033 155.678ZM32.1239 163.588L10.7039 172.828L11.4961 174.664L32.9161 165.424L32.1239 163.588ZM10.7064 174.665L32.1264 183.835L32.9136 181.997L11.4936 172.827L10.7064 174.665ZM33.52 182.916V164.506H31.52V182.916H33.52ZM25.52 107.292L24.598 107.679L25.7284 110.37L26.4858 107.551L25.52 107.292ZM29.86 100.152L30.4826 100.935L30.4913 100.927L29.86 100.152ZM51 139.492V140.492H52V139.492H51ZM2 139.492H0.999996V140.492H2V139.492ZM5.29 104.702L4.47543 104.122L5.29 104.702ZM21.25 101.972L20.6905 102.801L20.6977 102.806L20.705 102.81L21.25 101.972ZM22.93 130.532V131.532H23.93V130.532H22.93ZM21.18 111.632L20.3829 112.236H20.3829L21.18 111.632ZM10.82 111.632L11.6055 112.251L11.6114 112.243L11.6171 112.236L10.82 111.632ZM9 130.532H8V131.532H9V130.532ZM29.58 130.532H28.58V131.532H29.58V130.532ZM44 130.532V131.532H45V130.532H44ZM26.4858 107.551C27.2835 104.582 28.6325 102.406 30.4825 100.934L29.2375 99.3693C26.9808 101.164 25.4365 103.748 24.5542 107.032L26.4858 107.551ZM30.4913 100.927C32.2899 99.4634 34.5752 98.7018 37.42 98.7018V96.7018C34.1982 96.7018 31.4435 97.5736 29.2287 99.3763L30.4913 100.927ZM37.42 98.7018C41.4286 98.7018 44.4562 100.163 46.63 103.062L48.23 101.862C45.6438 98.4136 41.998 96.7018 37.42 96.7018V98.7018ZM46.63 103.062C48.8284 105.993 50 110.342 50 116.252H52C52 110.121 50.7916 105.277 48.23 101.862L46.63 103.062ZM50 116.252V139.492H52V116.252H50ZM51 138.492H2V140.492H51V138.492ZM3 139.492V117.582H0.999996V139.492H3ZM3 117.582C3 112.192 4.07552 108.131 6.10456 105.282L4.47543 104.122C2.11781 107.432 0.999996 111.958 0.999996 117.582H3ZM6.10456 105.282C8.09711 102.484 10.8867 101.082 14.6 101.082V99.0818C10.2866 99.0818 6.86955 100.76 4.47543 104.122L6.10456 105.282ZM14.6 101.082C16.996 101.082 19.0114 101.667 20.6905 102.801L21.8095 101.143C19.7552 99.7564 17.3373 99.0818 14.6 99.0818V101.082ZM20.705 102.81C22.3814 103.9 23.6847 105.504 24.598 107.679L26.442 106.905C25.3953 104.413 23.852 102.47 21.795 101.133L20.705 102.81ZM23.93 130.532V118.352H21.93V130.532H23.93ZM23.93 118.352C23.93 115.301 23.3282 112.812 21.9771 111.028L20.3829 112.236C21.3651 113.532 21.93 115.522 21.93 118.352H23.93ZM21.9771 111.028C20.5854 109.191 18.535 108.322 16 108.322V110.322C18.0384 110.322 19.4412 110.993 20.3829 112.236L21.9771 111.028ZM16 108.322C13.465 108.322 11.4146 109.191 10.0229 111.028L11.6171 112.236C12.5588 110.993 13.9616 110.322 16 110.322V108.322ZM10.0345 111.013C8.62789 112.798 8 115.295 8 118.352H10C10 115.529 10.5854 113.545 11.6055 112.251L10.0345 111.013ZM8 118.352V130.532H10V118.352H8ZM9 131.532H22.93V129.532H9V131.532ZM45 116.532C45 113.215 44.3801 110.545 42.9786 108.685C41.537 106.772 39.3889 105.872 36.72 105.872V107.872C38.9045 107.872 40.3964 108.582 41.3814 109.889C42.4066 111.249 43 113.409 43 116.532H45ZM36.72 105.872C34.0905 105.872 31.9763 106.777 30.5608 108.693C29.1872 110.551 28.58 113.218 28.58 116.532H30.58C30.58 113.406 31.1628 111.243 32.1692 109.881C33.1337 108.576 34.5895 107.872 36.72 107.872V105.872ZM28.58 116.532V130.532H30.58V116.532H28.58ZM29.58 131.532H44V129.532H29.58V131.532ZM45 130.532V116.532H43V130.532H45ZM30.35 69.2753L29.7793 68.4541L29.35 68.7525V69.2753H30.35ZM30.35 78.3753H29.35V79.3753H30.35V78.3753ZM51 78.3753H52V77.3753H51V78.3753ZM51 87.3353V88.3353H52V87.3353H51ZM2 87.3353H0.999996V88.3353H2V87.3353ZM2 78.3753V77.3753H0.999996V78.3753H2ZM22.51 78.3753V79.3753H23.51V78.3753H22.51ZM22.51 68.9953H23.51V68.4686L23.0757 68.1707L22.51 68.9953ZM2 54.9253H0.999996V55.452L1.4343 55.7499L2 54.9253ZM2 45.2653L2.57621 44.448L0.999996 43.3367V45.2653H2ZM25.73 61.9953L25.1538 62.8126L25.7226 63.2136L26.2962 62.8196L25.73 61.9953ZM51 44.6353H52V42.7351L50.4338 43.8111L51 44.6353ZM51 54.9253L51.5707 55.7465L52 55.4481V54.9253H51ZM29.35 69.2753V78.3753H31.35V69.2753H29.35ZM30.35 79.3753H51V77.3753H30.35V79.3753ZM50 78.3753V87.3353H52V78.3753H50ZM51 86.3353H2V88.3353H51V86.3353ZM3 87.3353V78.3753H0.999996V87.3353H3ZM2 79.3753H22.51V77.3753H2V79.3753ZM23.51 78.3753V68.9953H21.51V78.3753H23.51ZM23.0757 68.1707L2.56569 54.1007L1.4343 55.7499L21.9443 69.8199L23.0757 68.1707ZM3 54.9253V45.2653H0.999996V54.9253H3ZM1.42379 46.0826L25.1538 62.8126L26.3062 61.178L2.57621 44.448L1.42379 46.0826ZM26.2962 62.8196L51.5662 45.4595L50.4338 43.8111L25.1638 61.1711L26.2962 62.8196ZM50 44.6353V54.9253H52V44.6353H50ZM50.4293 54.1041L29.7793 68.4541L30.9207 70.0965L51.5707 55.7465L50.4293 54.1041ZM43.37 1.70837V0.708374H42.37V1.70837H43.37ZM51 1.70837H52V0.708374H51V1.70837ZM51 38.4584V39.4584H52V38.4584H51ZM2 38.4584H0.999996L0.999996 39.4584H2L2 38.4584ZM2 2.68835V1.68835H0.999996V2.68835H2ZM9.63 2.68835H10.63V1.68835H9.63V2.68835ZM9.63 29.3583H8.63V30.3583H9.63V29.3583ZM22.37 29.3583V30.3583H23.37V29.3583H22.37ZM22.37 5.69836V4.69836H21.37V5.69836H22.37ZM29.86 5.69836H30.86V4.69836H29.86V5.69836ZM29.86 29.3583H28.86V30.3583H29.86V29.3583ZM43.37 29.3583V30.3583H44.37V29.3583H43.37ZM43.37 2.70837H51V0.708374H43.37V2.70837ZM50 1.70837L50 38.4584H52L52 1.70837H50ZM51 37.4584H2L2 39.4584H51V37.4584ZM3 38.4584V2.68835H0.999996V38.4584H3ZM2 3.68835H9.63V1.68835H2V3.68835ZM8.63 2.68835V29.3583H10.63V2.68835H8.63ZM9.63 30.3583H22.37V28.3583H9.63V30.3583ZM23.37 29.3583V5.69836H21.37V29.3583H23.37ZM22.37 6.69836H29.86V4.69836H22.37V6.69836ZM28.86 5.69836V29.3583H30.86V5.69836H28.86ZM29.86 30.3583H43.37V28.3583H29.86V30.3583ZM44.37 29.3583L44.37 1.70837H42.37L42.37 29.3583H44.37Z" fill="#FDF9FA"/>
</svg>
