<svg width="17" height="17" viewBox="0 0 17 17" fill="none" xmlns="http://www.w3.org/2000/svg">
<path d="M13.4206 10.5319C14.9253 10.9833 15.8483 11.6379 15.8483 12.5846C15.8483 13.7413 14.317 14.5649 12.0431 14.9688L11.668 15.0306C11.5408 15.0499 11.4117 15.068 11.2806 15.0849L10.8816 15.1318C10.6794 15.1533 10.4732 15.172 10.2633 15.1877L9.83882 15.2154L9.40545 15.2353C9.33252 15.238 9.25925 15.2403 9.18566 15.2423L8.74033 15.2503H8.28962L7.84429 15.2423C7.7707 15.2403 7.69743 15.238 7.6245 15.2353L7.19113 15.2154L6.76667 15.1877C6.55679 15.172 6.35053 15.1533 6.14831 15.1318L5.74939 15.0849C5.68384 15.0765 5.61877 15.0677 5.5542 15.0587L5.17284 15.0006C2.79684 14.6091 1.18164 13.7726 1.18164 12.5846C1.18164 11.6379 2.1046 10.9833 3.60936 10.5319C3.96202 10.4261 4.33368 10.6262 4.43948 10.9789C4.54528 11.3315 4.34516 11.7032 3.9925 11.809C3.44863 11.9721 3.02582 12.1599 2.75789 12.3499C2.66537 12.4156 2.60464 12.4696 2.56704 12.5095L2.52691 12.5586C2.51859 12.5712 2.51497 12.58 2.51497 12.5846C2.51497 12.7205 2.69925 12.8763 3.0301 13.0323L3.20757 13.1102C3.27068 13.1361 3.33769 13.1619 3.40842 13.1876L3.6316 13.2639C3.7096 13.2892 3.79115 13.3141 3.87607 13.3387L4.14079 13.4113C4.18654 13.4232 4.23308 13.435 4.28041 13.4467L4.57352 13.5151C4.67422 13.5373 4.77785 13.559 4.88425 13.58L5.21156 13.6408L5.5544 13.6971C5.61278 13.7061 5.67176 13.7148 5.73132 13.7233L6.09549 13.7717L6.47257 13.8141L6.86151 13.8501C6.99302 13.8609 7.12633 13.8706 7.26127 13.879L7.6708 13.9003L8.08905 13.9135C8.15943 13.9149 8.23012 13.9161 8.30112 13.9168L8.51497 13.918C8.65811 13.918 8.80014 13.9164 8.9409 13.9135L9.35915 13.9003L9.76868 13.879C9.90362 13.8706 10.0369 13.8609 10.1684 13.8501L10.5574 13.8141L10.9345 13.7717L11.2986 13.7233L11.6488 13.6696C11.706 13.6602 11.7625 13.6506 11.8184 13.6408L12.1457 13.58L12.3032 13.548L12.6053 13.4813C12.703 13.4585 12.7977 13.4351 12.8892 13.4113L13.1539 13.3387C13.1963 13.3264 13.238 13.314 13.2787 13.3016L13.5127 13.2259C13.6243 13.1877 13.7277 13.149 13.8224 13.1102L13.9998 13.0323C14.3307 12.8763 14.515 12.7205 14.515 12.5846C14.515 12.58 14.5114 12.5712 14.503 12.5586L14.4629 12.5095C14.4253 12.4696 14.3646 12.4156 14.2721 12.3499C14.0041 12.1599 13.5813 11.9721 13.0374 11.809C12.6848 11.7032 12.4847 11.3315 12.5905 10.9789C12.6963 10.6262 13.0679 10.4261 13.4206 10.5319ZM8.51497 0.917969C11.2727 0.917969 13.515 3.10531 13.515 5.8119C13.515 7.45478 12.6235 9.04773 11.1603 10.5568C10.6631 11.0695 10.1326 11.5364 9.6019 11.9501L9.37509 12.1238L9.08975 12.3323L8.87969 12.476C8.65811 12.6208 8.37184 12.6208 8.15026 12.476C8.13149 12.4638 8.11114 12.4502 8.08926 12.4355L7.85292 12.2699L7.65486 12.1238L7.42804 11.9501C6.89733 11.5364 6.3668 11.0695 5.86969 10.5568C4.40645 9.04773 3.51497 7.45478 3.51497 5.8119C3.51497 3.10531 5.7572 0.917969 8.51497 0.917969ZM8.51497 2.2513C6.48628 2.2513 4.84831 3.84919 4.84831 5.8119C4.84831 7.03384 5.58183 8.34454 6.82692 9.62863C7.27773 10.0936 7.76282 10.5205 8.24774 10.8985C8.33241 10.9645 8.41395 11.0265 8.49181 11.0845L8.51497 11.1006L8.59721 11.0403L8.78221 10.8985C9.26713 10.5205 9.75222 10.0936 10.203 9.62863C11.4481 8.34454 12.1816 7.03384 12.1816 5.8119C12.1816 3.84919 10.5437 2.2513 8.51497 2.2513ZM8.51497 3.58464C9.80363 3.58464 10.8483 4.62931 10.8483 5.91797C10.8483 7.20663 9.80363 8.2513 8.51497 8.2513C7.22632 8.2513 6.18164 7.20663 6.18164 5.91797C6.18164 4.62931 7.22632 3.58464 8.51497 3.58464ZM8.51497 4.91797C7.9627 4.91797 7.51497 5.36569 7.51497 5.91797C7.51497 6.47025 7.9627 6.91797 8.51497 6.91797C9.06725 6.91797 9.51497 6.47025 9.51497 5.91797C9.51497 5.36569 9.06725 4.91797 8.51497 4.91797Z" fill="#656565"/>
</svg>
