<svg width="321" height="320" viewBox="0 0 321 320" fill="none" xmlns="http://www.w3.org/2000/svg">
<path fill-rule="evenodd" clip-rule="evenodd" d="M160.393 0C248.979 0 320.795 71.6212 320.795 160.007C320.795 248.37 248.979 320 160.393 320C71.8119 320 0 248.37 0 160.007C0 71.6212 71.8119 0 160.393 0Z" fill="#3333FF"/>
<path fill-rule="evenodd" clip-rule="evenodd" d="M174.932 0.652466C141.591 13.6015 122.483 29.5583 105.606 43.5472C91.6807 55.4778 94.6965 52.4888 85.7617 61.3904C45.3418 108.269 78.3399 108.965 110.375 82.0569L134.237 63.1551C175.757 28.1874 195.42 55.7813 155.408 87.9357L114.933 121.816C78.3497 153.957 110.287 166.671 128.525 152.056C151.906 135.094 173.837 116.388 196.957 99.0096C236.105 67.3833 250.168 96.0445 213.761 126.128C190.655 148.176 166.946 167.259 141.527 186.783C109.83 210.693 129.551 236.023 156.758 215.96C181.155 198.469 203.417 180.291 226.743 162.384C270.168 127.387 285.917 153.011 246.282 185.044C223.482 205.646 206.718 219.242 188.145 236.552C166.297 256.665 185.404 272.564 201.683 259.751C223.81 246.518 236.734 232.432 253.926 214.206C266.102 198.885 278.323 197.023 283.51 202.143L284.325 202.011L284.86 203.892C285.582 205.156 285.995 206.651 286.098 208.331L286.599 210.178L285.951 211.036C285.425 214.735 283.426 219.095 279.609 223.774C259.034 249.693 244.097 270.075 223.949 285.312L222.956 288.276L225.972 294.214L232.078 296.679C244.284 296.419 252.855 291.912 263.455 282.568C269.786 277.252 275.705 271.481 281.162 265.258L281.358 265.053L281.402 264.979C294.827 249.609 305.363 231.648 312.136 211.952L312.151 211.903L312.244 211.658C316.11 200.34 318.737 188.459 319.981 176.176L319.991 176.151L319.981 176.102C320.52 170.811 320.796 165.432 320.796 160.007C320.796 76.5695 256.705 8.02631 174.981 0.652466H174.932Z" fill="#33FF33"/>
<path fill-rule="evenodd" clip-rule="evenodd" d="M4.80383 120.983V120.998C1.66022 133.477 0 146.544 0 160.007C0 237.518 55.3276 302.176 128.721 316.85L129.089 316.938C218.731 307.174 237.165 277.238 279.609 223.775C297.322 202.202 275.566 186.989 253.926 214.206C236.734 232.432 223.81 246.518 201.683 259.752C185.404 272.564 166.297 256.665 188.145 236.553C206.718 219.243 223.482 205.647 246.282 185.044C285.917 153.011 270.168 127.388 226.742 162.384C203.417 180.291 181.155 198.469 156.758 215.96C129.551 236.024 109.83 210.693 141.527 186.784C166.946 167.26 190.655 148.176 213.761 126.128C250.167 96.0448 236.105 67.3835 196.957 99.0099C173.837 116.388 151.906 135.094 128.525 152.057C110.287 166.671 78.3496 153.957 114.933 121.816L155.408 87.936C195.419 55.7815 175.757 28.1877 134.237 63.1554L110.375 82.0572C78.3398 108.965 45.3417 108.269 85.7616 61.3906C94.6964 52.4891 91.6805 55.478 105.606 43.5474C112.104 38.1327 108.852 27.3448 97.5257 27.7123C63.6139 28.8148 14.5835 79.2012 4.80383 120.983Z" fill="#FFFF33"/>
</svg>
