<svg width="128" height="50" viewBox="0 0 128 50" fill="none" xmlns="http://www.w3.org/2000/svg">
<path d="M58.6091 10.787V12.9976H59.3086C59.7791 12.9976 60.0974 12.9635 60.2674 12.8955C60.4333 12.8299 60.5724 12.7084 60.6796 12.5312C60.7869 12.3548 60.8417 12.14 60.8417 11.885C60.8417 11.6275 60.7859 11.4089 60.6749 11.2315C60.5629 11.0567 60.4261 10.9377 60.2627 10.8755C60.0983 10.8163 59.7542 10.787 59.2262 10.787H58.6091ZM57.3486 17.2581V9.46812H59.3811C60.1388 9.46812 60.6344 9.50456 60.867 9.5798C61.2396 9.70131 61.5446 9.95726 61.7876 10.3499C62.0298 10.7424 62.1498 11.2486 62.1498 11.8681C62.1498 12.4339 62.045 12.9052 61.8378 13.2866C61.6295 13.6665 61.3683 13.9327 61.0538 14.0882C60.7441 14.2436 60.2031 14.3199 59.4383 14.3199H58.6091V17.2581H57.3486Z" fill="#3333FF"/>
<path d="M65.7303 14.1781L64.8701 11.285L64.0209 14.1781H65.7303ZM68.0592 17.2581H66.6833L66.1353 15.4873H63.6349L63.1187 17.2581H61.7725L64.2124 9.46812H65.5516L68.0592 17.2581Z" fill="#3333FF"/>
<path d="M69.9885 13.8623V15.9465H71.1632C71.6779 15.9465 72.0067 15.9172 72.152 15.8639C72.2974 15.8079 72.4212 15.6996 72.5214 15.5408C72.6191 15.3766 72.6691 15.174 72.6691 14.9262C72.6691 14.6687 72.6142 14.4623 72.5095 14.2971C72.4037 14.1319 72.264 14.0178 72.0877 13.9561C71.9128 13.8939 71.5516 13.8623 71.0122 13.8623H69.9885ZM69.9885 10.7652V12.5676H70.8225C71.3229 12.5676 71.6327 12.5554 71.7517 12.5384C71.9677 12.5045 72.1344 12.4112 72.2569 12.2616C72.3784 12.1109 72.4394 11.9069 72.4394 11.6469C72.4394 11.4162 72.3904 11.2292 72.2927 11.0859C72.1916 10.9425 72.0734 10.8527 71.9319 10.8171C71.7908 10.7837 71.3872 10.7652 70.72 10.7652H69.9885ZM68.7266 9.46812H71.2362C71.9185 9.46812 72.4022 9.5313 72.6787 9.66002C72.956 9.78626 73.1909 10.0122 73.3839 10.3352C73.5741 10.656 73.6694 11.0227 73.6694 11.4283C73.6694 11.8024 73.5884 12.1449 73.4244 12.4461C73.261 12.7497 73.0494 12.9742 72.7907 13.119C73.1599 13.2535 73.4521 13.4834 73.6599 13.8113C73.8729 14.1343 73.9777 14.5326 73.9777 15.0015C73.9777 15.566 73.8434 16.047 73.5764 16.4371C73.3091 16.8281 72.9932 17.0701 72.6286 17.1619C72.3737 17.2266 71.7827 17.2581 70.8605 17.2581H68.7266V9.46812Z" fill="#3333FF"/>
<path d="M75.0498 17.2581V9.46812H76.3117V12.5336H78.7946V9.46812H80.0598V17.2581H78.7946V13.8526H76.3117V17.2581H75.0498Z" fill="#3333FF"/>
<path d="M87.6258 17.2581V9.46812H88.8863V17.2581H87.6258ZM82.6526 13.8842V15.9406H83.9868C84.3328 15.9406 84.5831 15.9149 84.7403 15.8687C84.8952 15.8226 85.0286 15.7074 85.1478 15.5334C85.2621 15.3537 85.3217 15.1521 85.3217 14.9213C85.3217 14.2306 84.8952 13.8842 84.0378 13.8842H82.6526ZM81.3896 17.2581V9.46812H82.6526V12.5676H84.4448C85.112 12.5676 85.641 12.7848 86.0341 13.2219C86.425 13.6592 86.6203 14.2373 86.6203 14.9529C86.6203 15.5359 86.4607 16.0679 86.1461 16.5439C85.8268 17.021 85.2668 17.2581 84.4568 17.2581H81.3896Z" fill="#3333FF"/>
<path d="M90.1016 17.2581V9.46812H94.7527V10.787H91.362V12.5117H94.5121V13.8244H91.362V15.9465H94.8671V17.2581H90.1016Z" fill="#3333FF"/>
<path d="M58.7068 25.5639V27.6461H59.8815C60.3961 27.6461 60.725 27.6203 60.8703 27.5645C61.0156 27.511 61.1395 27.4017 61.2395 27.239C61.3373 27.0786 61.3873 26.8746 61.3873 26.6268C61.3873 26.3718 61.334 26.1629 61.229 25.9977C61.1228 25.8325 60.9813 25.7184 60.8073 25.6567C60.6296 25.5945 60.2722 25.5639 59.7303 25.5639H58.7068ZM58.7068 22.4658V24.2668H59.5407C60.041 24.2668 60.3508 24.2585 60.47 24.2391C60.6858 24.2051 60.8527 24.1127 60.975 23.9622C61.0967 23.8115 61.1585 23.606 61.1585 23.3476C61.1585 23.1168 61.1085 22.9283 61.0099 22.7865C60.9098 22.6432 60.7907 22.5533 60.65 22.5178C60.5105 22.4838 60.1055 22.4658 59.4383 22.4658H58.7068ZM57.4463 21.1687H59.9553C60.6382 21.1687 61.1205 21.2319 61.3968 21.3606C61.6757 21.4869 61.9105 21.7129 62.1022 22.0358C62.2927 22.3565 62.388 22.7219 62.388 23.129C62.388 23.5055 62.307 23.8456 62.1427 24.1468C61.9797 24.4494 61.7677 24.6739 61.5079 24.8196C61.8805 24.9542 62.1703 25.1854 62.38 25.5119C62.5907 25.8359 62.6969 26.2333 62.6969 26.6997C62.6969 27.2667 62.561 27.7466 62.2942 28.1377C62.0273 28.5298 61.7114 28.7707 61.3459 28.864C61.0918 28.9262 60.5033 28.9597 59.5788 28.9597H57.4463V21.1687Z" fill="#3333FF"/>
<path d="M64.8179 25.0603C64.8179 25.9542 64.9848 26.627 65.3174 27.074C65.6519 27.5224 66.0641 27.7468 66.5598 27.7468C67.0554 27.7468 67.4653 27.5233 67.7941 27.0788C68.1205 26.6367 68.2825 25.9542 68.2825 25.0311C68.2825 24.1285 68.1253 23.4619 67.806 23.0281C67.4891 22.5972 67.0744 22.381 66.5598 22.381C66.0451 22.381 65.6248 22.5982 65.3017 23.032C64.9776 23.4692 64.8179 24.1445 64.8179 25.0603ZM63.5146 25.1113C63.5146 24.1834 63.6481 23.4182 63.9187 22.8207C64.1866 22.2192 64.5392 21.7714 64.9729 21.476C65.4089 21.1835 65.9356 21.0377 66.5526 21.0377C67.4509 21.0377 68.1801 21.3851 68.7448 22.0822C69.3095 22.7808 69.593 23.7753 69.593 25.0651C69.593 26.3671 69.2928 27.3873 68.6961 28.1185C68.1706 28.7694 67.4595 29.0911 66.5598 29.0911C65.6519 29.0911 64.9362 28.7709 64.4106 28.1306C63.8139 27.3985 63.5146 26.3899 63.5146 25.1113Z" fill="#3333FF"/>
<path d="M72.3983 25.6845H72.122V24.5064C73.0035 24.5502 73.4467 24.1591 73.4467 23.321C73.4467 23.0174 73.3585 22.7731 73.1885 22.5923C73.0155 22.4126 72.781 22.3227 72.4817 22.3227C71.967 22.3227 71.6325 22.6482 71.48 23.3002L70.2515 22.9382C70.5031 21.6693 71.256 21.0377 72.5055 21.0377C73.1813 21.0377 73.7232 21.2248 74.133 21.6012C74.5452 21.9788 74.7477 22.466 74.7477 23.0611C74.7477 23.7996 74.4022 24.3947 73.7112 24.845C74.5452 25.2167 74.9622 25.8701 74.9622 26.8029C74.9622 27.5146 74.7524 28.0747 74.3284 28.4804C73.9066 28.8885 73.3109 29.0911 72.5389 29.0911C71.886 29.0911 71.3738 28.9599 71.0011 28.6951C70.6293 28.427 70.3411 27.9178 70.1348 27.1638L71.2975 26.6853C71.4118 27.1298 71.562 27.431 71.7468 27.5802C71.9303 27.7298 72.1853 27.8051 72.5055 27.8051C72.8582 27.8051 73.1393 27.7104 73.3467 27.5161C73.554 27.3242 73.6602 27.0676 73.6602 26.7485C73.6602 26.4167 73.5492 26.1558 73.3275 25.9687C73.1084 25.7807 72.7962 25.6845 72.3983 25.6845Z" fill="#3333FF"/>
<path d="M76.041 28.9597V21.1687H77.9328L79.0695 26.4835L80.1965 21.1687H82.0932V28.9597H80.9209V22.8254L79.6747 28.9597H78.4547L77.2195 22.8254V28.9597H76.041Z" fill="#3333FF"/>
<path d="M84.4016 25.0603C84.4016 25.9542 84.5708 26.627 84.9019 27.074C85.2379 27.5224 85.6501 27.7468 86.1433 27.7468C86.639 27.7468 87.0512 27.5233 87.38 27.0788C87.7065 26.6367 87.8685 25.9542 87.8685 25.0311C87.8685 24.1285 87.7088 23.4619 87.392 23.0281C87.075 22.5972 86.658 22.381 86.1433 22.381C85.6311 22.381 85.2093 22.5982 84.8876 23.032C84.5636 23.4692 84.4016 24.1445 84.4016 25.0603ZM83.0986 25.1113C83.0986 24.1834 83.2336 23.4182 83.5037 22.8207C83.7729 22.2192 84.1246 21.7714 84.5588 21.476C84.9925 21.1835 85.5191 21.0377 86.1386 21.0377C87.0345 21.0377 87.766 21.3851 88.3308 22.0822C88.8955 22.7808 89.179 23.7753 89.179 25.0651C89.179 26.3671 88.8788 27.3873 88.2807 28.1185C87.7565 28.7694 87.044 29.0911 86.1433 29.0911C85.2379 29.0911 84.5206 28.7709 83.9969 28.1306C83.3989 27.3985 83.0986 26.3899 83.0986 25.1113Z" fill="#3333FF"/>
<path d="M92.8793 21.1687H94.0825V24.4844C94.3113 24.4601 94.4805 24.3557 94.59 24.1735C94.695 23.9913 94.857 23.5516 95.0667 22.8545C95.2787 22.1549 95.517 21.6895 95.7767 21.4603C96.0365 21.2294 96.5368 21.1129 97.2779 21.1104V22.2788H97.0967C96.7394 22.2788 96.4963 22.3638 96.3724 22.5324C96.2462 22.699 96.1103 23.0454 95.9625 23.5686C95.8148 24.0943 95.6862 24.4261 95.579 24.567C95.4717 24.7079 95.3359 24.8318 95.1715 24.9411C95.4122 25.0407 95.6242 25.2107 95.8077 25.456C95.9935 25.698 96.2199 26.1556 96.4844 26.8285L97.3422 28.9597H95.8554L95.1 26.9451C94.9285 26.4908 94.7712 26.142 94.6258 25.8981C94.4781 25.6552 94.2995 25.5386 94.0825 25.5532V28.9597H92.8793V25.5532C92.6863 25.5459 92.5218 25.6392 92.3813 25.8384C92.2383 26.0341 92.0691 26.4034 91.8666 26.9451L91.1065 28.9597H89.6221L90.4751 26.8285C90.7253 26.2115 90.9373 25.7718 91.1136 25.5119C91.29 25.2496 91.514 25.0601 91.788 24.9411C91.5759 24.7856 91.4258 24.6311 91.3328 24.4795C91.2399 24.3265 91.1231 23.9986 90.9803 23.4909C90.8348 22.9832 90.6943 22.6505 90.5561 22.4901C90.4179 22.3259 90.1296 22.2594 89.6888 22.2788V21.1104C90.4251 21.1031 90.9254 21.2212 91.1851 21.4651C91.4496 21.7055 91.6855 22.1744 91.8976 22.8642C92.1096 23.5565 92.2693 23.9937 92.3788 24.1759C92.4861 24.3605 92.653 24.4625 92.8793 24.4844V21.1687Z" fill="#3333FF"/>
<path d="M98.0811 28.9597V21.1687H99.3415V24.2342H101.824V21.1687H103.092V28.9597H101.824V25.5532H99.3415V28.9597H98.0811Z" fill="#3333FF"/>
<path d="M105.446 25.0603C105.446 25.9542 105.613 26.627 105.947 27.074C106.283 27.5224 106.695 27.7468 107.188 27.7468C107.686 27.7468 108.096 27.5233 108.425 27.0788C108.751 26.6367 108.913 25.9542 108.913 25.0311C108.913 24.1285 108.754 23.4619 108.437 23.0281C108.12 22.5972 107.703 22.381 107.188 22.381C106.676 22.381 106.254 22.5982 105.933 23.032C105.608 23.4692 105.446 24.1445 105.446 25.0603ZM104.146 25.1113C104.146 24.1834 104.279 23.4182 104.548 22.8207C104.817 22.2192 105.17 21.7714 105.604 21.476C106.037 21.1835 106.564 21.0377 107.183 21.0377C108.082 21.0377 108.811 21.3851 109.376 22.0822C109.94 22.7808 110.224 23.7753 110.224 25.0651C110.224 26.3671 109.924 27.3873 109.326 28.1185C108.801 28.7694 108.089 29.0911 107.188 29.0911C106.283 29.0911 105.566 28.7709 105.041 28.1306C104.443 27.3985 104.146 26.3899 104.146 25.1113Z" fill="#3333FF"/>
<path d="M115.22 26.095L116.447 26.5784C116.254 27.4505 115.937 28.0869 115.494 28.4886C115.049 28.8909 114.501 29.0911 113.85 29.0911C113.035 29.0911 112.373 28.7709 111.865 28.1306C111.279 27.3907 110.988 26.3899 110.988 25.1341C110.988 23.8044 111.281 22.7658 111.87 22.0128C112.38 21.3608 113.066 21.0377 113.929 21.0377C114.629 21.0377 115.218 21.2806 115.692 21.7689C116.028 22.1187 116.276 22.6322 116.431 23.3162L115.18 23.6878C115.101 23.2652 114.941 22.9421 114.703 22.7162C114.465 22.4913 114.184 22.381 113.862 22.381C113.4 22.381 113.021 22.5851 112.73 22.9965C112.437 23.4085 112.292 24.0862 112.292 25.0311C112.292 26.0125 112.435 26.712 112.718 27.1259C113.004 27.5403 113.373 27.7468 113.829 27.7468C114.165 27.7468 114.453 27.6156 114.694 27.3509C114.939 27.0885 115.113 26.6683 115.22 26.095Z" fill="#3333FF"/>
<path d="M118.499 28.9597V22.4877H116.638V21.1687H121.618V22.4877H119.762V28.9597H118.499Z" fill="#3333FF"/>
<path d="M122.44 28.9597V21.1687H123.646V26.3596L126.179 21.1687H127.447V28.9597H126.243V23.8796L123.713 28.9597H122.44Z" fill="#3333FF"/>
<path d="M92.5003 37.888L91.6224 34.9958L90.7557 37.888H92.5003ZM94.8772 40.967H93.473L92.9137 39.1968H90.3617L89.8349 40.967H88.4609L90.9511 33.1795H92.3179L94.8772 40.967Z" fill="#949494"/>
<path d="M83.7689 37.5732V39.6548H84.9678C85.493 39.6548 85.8286 39.629 85.9769 39.5732C86.1252 39.5198 86.2517 39.4105 86.3538 39.2478C86.4536 39.0875 86.5046 38.8835 86.5046 38.6359C86.5046 38.3809 86.4502 38.172 86.3431 38.0069C86.2347 37.8418 86.0902 37.7277 85.9127 37.666C85.7313 37.6038 85.3666 37.5732 84.8135 37.5732H83.7689ZM83.7689 34.4761V36.2765H84.62C85.1306 36.2765 85.4468 36.2682 85.5684 36.2488C85.7887 36.2148 85.959 36.1225 86.0839 35.972C86.208 35.8214 86.2712 35.616 86.2712 35.3576C86.2712 35.1269 86.2201 34.9385 86.1195 34.7967C86.0173 34.6534 85.8958 34.5635 85.7522 34.5281C85.6098 34.4941 85.1964 34.4761 84.5154 34.4761H83.7689ZM82.4824 33.1794H85.0431C85.7401 33.1794 86.2323 33.2426 86.5143 33.3713C86.799 33.4974 87.0386 33.7234 87.2343 34.0462C87.4287 34.3668 87.526 34.7321 87.526 35.1391C87.526 35.5154 87.4433 35.8554 87.2756 36.1565C87.1092 36.4591 86.8928 36.6835 86.6278 36.8292C87.008 36.9637 87.3037 37.1949 87.5178 37.5212C87.7328 37.8452 87.8412 38.2425 87.8412 38.7087C87.8412 39.2755 87.7025 39.7553 87.4302 40.1463C87.1578 40.5382 86.8354 40.7791 86.4624 40.8723C86.2031 40.9345 85.6024 40.968 84.6589 40.968H82.4824V33.1794Z" fill="#949494"/>
<path d="M57.4463 40.968V33.1794H59.3771L60.5371 38.4926L61.6874 33.1794H63.6231V40.968H62.4267V34.8355L61.1548 40.968H59.9097L58.6491 34.8355V40.968H57.4463Z" fill="#949494"/>
<path d="M65.5954 36.9199C65.5954 37.8135 65.7681 38.4862 66.106 38.933C66.4489 39.3812 66.8696 39.6056 67.373 39.6056C67.8789 39.6056 68.2996 39.3822 68.6352 38.9378C68.9684 38.4959 69.1337 37.8135 69.1337 36.8908C69.1337 35.9884 68.9708 35.3221 68.6474 34.8884C68.3239 34.4576 67.8983 34.2414 67.373 34.2414C66.8502 34.2414 66.4198 34.4585 66.0914 34.8922C65.7607 35.3293 65.5954 36.0044 65.5954 36.9199ZM64.2656 36.9709C64.2656 36.0433 64.4033 35.2784 64.679 34.681C64.9538 34.0797 65.3128 33.632 65.7559 33.3367C66.1985 33.0443 66.7359 32.8986 67.3682 32.8986C68.2826 32.8986 69.0291 33.2458 69.6055 33.9428C70.1819 34.6412 70.4712 35.6353 70.4712 36.9248C70.4712 38.2263 70.1648 39.2462 69.5545 39.9772C69.0194 40.6279 68.2923 40.9495 67.373 40.9495C66.4489 40.9495 65.7169 40.6294 65.1824 39.9893C64.572 39.2574 64.2656 38.2492 64.2656 36.9709Z" fill="#949494"/>
<path d="M78.5337 33.1445H77.3057V37.5276V40.9331H78.5337V37.5276C78.7551 37.5131 78.9374 37.6296 79.0882 37.8724C79.2366 38.1162 79.3971 38.4649 79.5721 38.9191L80.3431 40.9331H81.8605L80.9851 38.8025C80.7151 38.1298 80.484 37.6723 80.2944 37.4305C80.1071 37.1852 79.8907 37.0152 79.6451 36.9157C79.8129 36.8064 79.9515 36.6826 80.0609 36.5417C80.1704 36.4009 80.3016 36.0692 80.4524 35.5437C80.6032 35.0206 80.7419 34.6743 80.8708 34.5078C80.9971 34.3392 81.2453 34.2542 81.61 34.2542H81.7949V33.0862C81.0385 33.0887 80.5279 33.2052 80.2628 33.4359C79.9977 33.6651 79.7545 34.1304 79.5381 34.8297C79.3241 35.5267 79.1587 35.9662 79.0517 36.1483C78.9399 36.3304 78.7672 36.4349 78.5337 36.4592V33.1445Z" fill="#949494"/>
<path d="M75.404 37.9544L76.6564 38.4376C76.4595 39.3094 76.136 39.9456 75.6836 40.3472C75.2289 40.7494 74.6696 40.9495 74.0057 40.9495C73.174 40.9495 72.4979 40.6294 71.9799 39.9893C71.3817 39.2496 71.085 38.2492 71.085 36.9937C71.085 35.6644 71.3842 34.6261 71.9848 33.8733C72.5052 33.2216 73.2056 32.8986 74.0859 32.8986C74.8008 32.8986 75.4015 33.1414 75.8855 33.6295C76.2284 33.9792 76.4812 34.4925 76.6394 35.1764L75.3626 35.5479C75.2823 35.1254 75.1195 34.8024 74.8763 34.5766C74.6331 34.3517 74.3461 34.2414 74.0178 34.2414C73.546 34.2414 73.1594 34.4454 72.8627 34.8568C72.5635 35.2686 72.4152 35.9461 72.4152 36.8908C72.4152 37.8718 72.5612 38.5712 72.8505 38.9849C73.1424 39.3992 73.5193 39.6056 73.9838 39.6056C74.3267 39.6056 74.6209 39.4745 74.8666 39.2098C75.117 38.9475 75.2945 38.5274 75.404 37.9544Z" fill="#949494"/>
<path fill-rule="evenodd" clip-rule="evenodd" d="M24.9729 0.718231C38.3965 0.718231 49.2791 11.5982 49.2791 25.0248C49.2791 38.448 38.3965 49.3293 24.9729 49.3293C11.5498 49.3293 0.667969 38.448 0.667969 25.0248C0.667969 11.5982 11.5498 0.718231 24.9729 0.718231Z" fill="#3333FF"/>
<path fill-rule="evenodd" clip-rule="evenodd" d="M27.1755 0.81736C22.1232 2.78445 19.2278 5.20844 16.6703 7.33348C14.5602 9.14585 15.0172 8.69181 13.6632 10.044C7.53829 17.1653 12.5386 17.271 17.393 13.1835L21.0089 10.3121C27.3005 5.00019 30.28 9.19196 24.2169 14.0765L18.0837 19.2233C12.5401 24.1057 17.3796 26.0372 20.1433 23.8171C23.6862 21.2403 27.0095 18.3986 30.5131 15.7588C36.4453 10.9544 38.5761 15.3083 33.0593 19.8783C29.5581 23.2276 25.9653 26.1266 22.1135 29.0924C17.3104 32.7245 20.2987 36.5725 24.4216 33.5246C28.1185 30.8676 31.4919 28.1062 35.0265 25.386C41.6069 20.0696 43.9933 23.9621 37.9874 28.8282C34.5324 31.9579 31.9921 34.0233 29.1777 36.6528C25.867 39.7081 28.7623 42.1233 31.2291 40.177C34.5821 38.1667 36.5406 36.0269 39.1457 33.2582C40.9907 30.9308 42.8426 30.648 43.6286 31.4258L43.7521 31.4057L43.8333 31.6915C43.9426 31.8835 44.0051 32.1105 44.0208 32.3658L44.0968 32.6464L43.9985 32.7766C43.9188 33.3386 43.6159 34.001 43.0376 34.7117C39.9197 38.649 37.6562 41.7452 34.6031 44.0599L34.4528 44.5102L34.9097 45.4123L35.835 45.7866C37.6846 45.7472 38.9833 45.0625 40.5896 43.6431C41.549 42.8356 42.4459 41.9588 43.2729 41.0136L43.3026 40.9823L43.3093 40.9711C45.3435 38.6363 46.9401 35.9078 47.9664 32.9158L47.9686 32.9084L47.9827 32.8712C48.5687 31.1519 48.9667 29.347 49.1552 27.4811L49.1567 27.4773L49.1552 27.4698C49.2369 26.6662 49.2786 25.849 49.2786 25.0249C49.2786 12.3499 39.5668 1.93752 27.1829 0.81736H27.1755Z" fill="#33FF33"/>
<path fill-rule="evenodd" clip-rule="evenodd" d="M1.39591 19.0968V19.0991C0.919546 20.9947 0.667969 22.9797 0.667969 25.0249C0.667969 36.7995 9.05192 46.6218 20.1734 48.8509L20.2293 48.8643C33.813 47.3809 36.6064 42.8334 43.038 34.7118C45.722 31.4347 42.4254 29.1237 39.1461 33.2582C36.541 36.0269 34.5826 38.1667 31.2296 40.177C28.7628 42.1233 25.8675 39.7081 29.1782 36.6529C31.9925 34.0233 34.5328 31.9579 37.9878 28.8282C43.9938 23.9621 41.6074 20.0697 35.0269 25.386C31.4923 28.1063 28.1189 30.8676 24.422 33.5247C20.2992 36.5725 17.3108 32.7246 22.1139 29.0925C25.9658 26.1266 29.5585 23.2276 33.0597 19.8784C38.5766 15.3084 36.4457 10.9544 30.5135 15.7588C27.01 18.3987 23.6867 21.2403 20.1437 23.8171C17.38 26.0372 12.5405 24.1058 18.0842 19.2233L24.2173 14.0765C30.2805 9.19198 27.3009 5.0002 21.0093 10.3121L17.3934 13.1835C12.539 17.2711 7.53873 17.1653 13.6637 10.0441C15.0176 8.69183 14.5606 9.14587 16.6707 7.3335C17.6554 6.51096 17.1627 4.87216 15.4463 4.92799C10.3076 5.09547 2.87785 12.7497 1.39591 19.0968Z" fill="#FFFF33"/>
</svg>
