<svg width="16" height="16" viewBox="0 0 16 16" fill="none" xmlns="http://www.w3.org/2000/svg">
<path fill-rule="evenodd" clip-rule="evenodd" d="M13.3301 2.59243C11.9202 1.1875 10.045 0.413387 8.0473 0.412598C3.93101 0.412598 0.580867 3.74675 0.579219 7.84497C0.57867 9.15498 0.92257 10.4337 1.57606 11.5609L0.516602 15.4126L4.47554 14.379C5.5663 14.9711 6.79441 15.2832 8.04431 15.2837H8.04738C12.1632 15.2837 15.5137 11.9491 15.5154 7.8509C15.5162 5.86484 14.7401 3.99736 13.3301 2.59243ZM8.04738 14.0283H8.04484C6.93106 14.0279 5.83861 13.7301 4.88562 13.1672L4.65894 13.0333L2.30968 13.6467L2.93675 11.367L2.78915 11.1332C2.16781 10.1496 1.83963 9.01272 1.84012 7.84544C1.84148 4.43916 4.62601 1.66796 8.04984 1.66796C9.70774 1.66858 11.2662 2.31204 12.4382 3.47976C13.6101 4.64749 14.2551 6.19968 14.2545 7.85042C14.2531 11.2569 11.4686 14.0283 8.04738 14.0283ZM11.4521 9.40145C11.2655 9.3085 10.3481 8.85918 10.177 8.7972C10.006 8.73522 9.88162 8.70424 9.7572 8.89018C9.63282 9.07609 9.27521 9.49443 9.16633 9.61837C9.0575 9.74232 8.94866 9.75783 8.76205 9.66486C8.57545 9.5719 7.97421 9.3758 7.26146 8.74306C6.70676 8.25063 6.33223 7.64239 6.22339 7.45648C6.11455 7.27054 6.21182 7.17001 6.30523 7.07744C6.38916 6.99422 6.49182 6.86053 6.58513 6.75206C6.67841 6.64361 6.70951 6.56614 6.7717 6.44221C6.83391 6.31825 6.80281 6.20978 6.75616 6.11683C6.70951 6.02387 6.33634 5.10973 6.18082 4.73788C6.02937 4.37573 5.87552 4.42473 5.76099 4.41906C5.65226 4.41367 5.52774 4.41252 5.40336 4.41252C5.27896 4.41252 5.07681 4.459 4.90575 4.64492C4.73472 4.83085 4.25269 5.28017 4.25269 6.1943C4.25269 7.10842 4.92131 7.99154 5.01461 8.1155C5.1079 8.23946 6.3304 10.1154 8.20227 10.9199C8.64747 11.1112 8.99505 11.2255 9.26604 11.3111C9.71307 11.4524 10.1199 11.4325 10.4414 11.3847C10.7999 11.3313 11.5454 10.9354 11.7009 10.5015C11.8564 10.0677 11.8564 9.69586 11.8097 9.61839C11.7631 9.54092 11.6387 9.49443 11.4521 9.40145Z" fill="#656565"/>
</svg>
